<svg width="15" height="15" viewBox="0 0 15 15" fill="none" xmlns="http://www.w3.org/2000/svg">
<g opacity="0.7">
<path d="M6.09375 6.5625V10.3125C6.09375 10.4368 6.14314 10.556 6.23104 10.644C6.31895 10.7319 6.43818 10.7812 6.5625 10.7812C6.68682 10.7812 6.80605 10.7319 6.89396 10.644C6.98186 10.556 7.03125 10.4368 7.03125 10.3125V6.5625C7.03125 6.43818 6.98186 6.31895 6.89396 6.23104C6.80605 6.14314 6.68682 6.09375 6.5625 6.09375C6.43818 6.09375 6.31895 6.14314 6.23104 6.23104C6.14314 6.31895 6.09375 6.43818 6.09375 6.5625ZM8.4375 6.09375C8.56182 6.09375 8.68105 6.14314 8.76896 6.23104C8.85686 6.31895 8.90625 6.43818 8.90625 6.5625V10.3125C8.90625 10.4368 8.85686 10.556 8.76896 10.644C8.68105 10.7319 8.56182 10.7812 8.4375 10.7812C8.31318 10.7812 8.19395 10.7319 8.10604 10.644C8.01814 10.556 7.96875 10.4368 7.96875 10.3125V6.5625C7.96875 6.43818 8.01814 6.31895 8.10604 6.23104C8.19395 6.14314 8.31318 6.09375 8.4375 6.09375ZM9.375 3.75H12.1875C12.3118 3.75 12.431 3.79939 12.519 3.88729C12.6069 3.9752 12.6562 4.09443 12.6562 4.21875C12.6562 4.34307 12.6069 4.4623 12.519 4.55021C12.431 4.63811 12.3118 4.6875 12.1875 4.6875H11.6691L10.9641 11.04C10.9004 11.6133 10.6275 12.143 10.1977 12.5277C9.76783 12.9124 9.21122 13.1251 8.63438 13.125H6.36562C5.78878 13.1251 5.23217 12.9124 4.80233 12.5277C4.3725 12.143 4.09962 11.6133 4.03594 11.04L3.33 4.6875H2.8125C2.68818 4.6875 2.56895 4.63811 2.48104 4.55021C2.39314 4.4623 2.34375 4.34307 2.34375 4.21875C2.34375 4.09443 2.39314 3.9752 2.48104 3.88729C2.56895 3.79939 2.68818 3.75 2.8125 3.75H5.625C5.625 3.25272 5.82254 2.77581 6.17417 2.42417C6.52581 2.07254 7.00272 1.875 7.5 1.875C7.99728 1.875 8.47419 2.07254 8.82582 2.42417C9.17746 2.77581 9.375 3.25272 9.375 3.75ZM7.5 2.8125C7.25136 2.8125 7.0129 2.91127 6.83709 3.08709C6.66127 3.2629 6.5625 3.50136 6.5625 3.75H8.4375C8.4375 3.50136 8.33873 3.2629 8.16291 3.08709C7.9871 2.91127 7.74864 2.8125 7.5 2.8125ZM4.27406 4.6875L4.96781 10.9369C5.00611 11.2808 5.16987 11.5985 5.42777 11.8293C5.68566 12.06 6.01958 12.1875 6.36562 12.1875H8.63438C8.98026 12.1873 9.31395 12.0597 9.57165 11.829C9.82934 11.5982 9.99297 11.2806 10.0312 10.9369L10.7269 4.6875H4.275H4.27406Z" fill="#F24E1E"/>
</g>
</svg>
