<svg width="20" height="20" viewBox="0 0 20 20" fill="none" xmlns="http://www.w3.org/2000/svg">
<path d="M10.8588 1.57749C10.6267 1.35807 10.3194 1.23581 10 1.23581C9.68061 1.23581 9.37334 1.35807 9.14125 1.57749L3.08625 7.29999C2.90085 7.47543 2.75323 7.68688 2.65242 7.92138C2.55161 8.15588 2.49975 8.40849 2.5 8.66374V15.6262C2.50033 16.1233 2.69802 16.5999 3.04962 16.9513C3.40121 17.3026 3.87794 17.5 4.375 17.5H6.25C6.74728 17.5 7.2242 17.3024 7.57583 16.9508C7.92746 16.5992 8.125 16.1223 8.125 15.625V12.5C8.125 12.3342 8.19085 12.1753 8.30806 12.058C8.42527 11.9408 8.58424 11.875 8.75 11.875H11.25C11.4158 11.875 11.5747 11.9408 11.6919 12.058C11.8092 12.1753 11.875 12.3342 11.875 12.5V15.625C11.875 16.1223 12.0725 16.5992 12.4242 16.9508C12.7758 17.3024 13.2527 17.5 13.75 17.5H15.625C16.1223 17.5 16.5992 17.3024 16.9508 16.9508C17.3025 16.5992 17.5 16.1223 17.5 15.625V8.66249C17.4999 8.40736 17.4478 8.15493 17.3468 7.92065C17.2457 7.68637 17.098 7.47518 16.9125 7.29999L10.8588 1.57499V1.57749Z" fill="white"/>
</svg>
