<svg width="18" height="18" viewBox="0 0 18 18" fill="none" xmlns="http://www.w3.org/2000/svg">
<path d="M15.2577 12.8672H14.022C13.9376 12.8672 13.8585 12.9041 13.8058 12.9691C13.6827 13.1186 13.5509 13.2627 13.412 13.3998C12.844 13.9683 12.1713 14.4214 11.431 14.734C10.6639 15.0579 9.83955 15.2241 9.00693 15.2227C8.16494 15.2227 7.34932 15.0574 6.58291 14.734C5.84257 14.4214 5.16982 13.9683 4.60186 13.3998C4.03288 12.8332 3.57919 12.1616 3.26592 11.4223C2.94072 10.6559 2.77725 9.84199 2.77725 9C2.77725 8.158 2.94248 7.34414 3.26592 6.57773C3.57881 5.83769 4.02881 5.17148 4.60186 4.60019C5.1749 4.0289 5.84111 3.5789 6.58291 3.26601C7.34932 2.94257 8.16494 2.77734 9.00693 2.77734C9.84893 2.77734 10.6645 2.94082 11.431 3.26601C12.1728 3.5789 12.839 4.0289 13.412 4.60019C13.5509 4.73906 13.681 4.8832 13.8058 5.03086C13.8585 5.09589 13.9394 5.13281 14.022 5.13281H15.2577C15.3685 5.13281 15.437 5.00976 15.3755 4.9166C14.0272 2.82129 11.6683 1.43437 8.9876 1.4414C4.77588 1.45195 1.39912 4.8709 1.44131 9.07734C1.4835 13.217 4.85498 16.5586 9.00693 16.5586C11.6806 16.5586 14.029 15.1734 15.3755 13.0834C15.4353 12.9902 15.3685 12.8672 15.2577 12.8672ZM16.8204 8.88925L14.3261 6.9205C14.2329 6.84668 14.0976 6.91347 14.0976 7.03125V8.36718H8.57803C8.50068 8.36718 8.4374 8.43047 8.4374 8.50781V9.49218C8.4374 9.56953 8.50068 9.63281 8.57803 9.63281H14.0976V10.9687C14.0976 11.0865 14.2347 11.1533 14.3261 11.0795L16.8204 9.11074C16.8372 9.09758 16.8508 9.08078 16.8602 9.06159C16.8695 9.0424 16.8744 9.02134 16.8744 9C16.8744 8.97865 16.8695 8.95759 16.8602 8.9384C16.8508 8.91922 16.8372 8.90241 16.8204 8.88925Z" fill="white"/>
</svg>
