<svg width="15" height="18" viewBox="0 0 15 18" fill="none" xmlns="http://www.w3.org/2000/svg">
<path d="M13 18H2C1.44792 18 0.976562 17.7803 0.585938 17.3408C0.195312 16.9014 0 16.3711 0 15.75V3.375C0 2.75391 0.195312 2.22363 0.585938 1.78418C0.976562 1.34473 1.44792 1.125 2 1.125V3.375C2 3.69141 2.09896 3.95801 2.29688 4.1748C2.49479 4.3916 2.72917 4.5 3 4.5H4C4.28125 4.5 4.51823 4.3916 4.71094 4.1748C4.90365 3.95801 5 3.69141 5 3.375V1.125H10V3.375C10 3.69141 10.099 3.95801 10.2969 4.1748C10.4948 4.3916 10.7292 4.5 11 4.5H12C12.2812 4.5 12.5182 4.3916 12.7109 4.1748C12.9036 3.95801 13 3.69141 13 3.375V1.125C13.5521 1.125 14.0234 1.34473 14.4141 1.78418C14.8047 2.22363 15 2.75391 15 3.375V15.75C15 16.3711 14.8047 16.9014 14.4141 17.3408C14.0234 17.7803 13.5521 18 13 18ZM12.5 6.75H2.5C2.36458 6.75 2.2474 6.80566 2.14844 6.91699C2.04948 7.02832 2 7.16016 2 7.3125C2 7.46484 2.04948 7.59668 2.14844 7.70801C2.2474 7.81934 2.36458 7.875 2.5 7.875H12.5C12.6354 7.875 12.7526 7.81934 12.8516 7.70801C12.9505 7.59668 13 7.46484 13 7.3125C13 7.16016 12.9505 7.02832 12.8516 6.91699C12.7526 6.80566 12.6354 6.75 12.5 6.75ZM12.5 10.125H2.5C2.36458 10.125 2.2474 10.1807 2.14844 10.292C2.04948 10.4033 2 10.5352 2 10.6875C2 10.8398 2.04948 10.9717 2.14844 11.083C2.2474 11.1943 2.36458 11.25 2.5 11.25H12.5C12.6354 11.25 12.7526 11.1943 12.8516 11.083C12.9505 10.9717 13 10.8398 13 10.6875C13 10.5352 12.9505 10.4033 12.8516 10.292C12.7526 10.1807 12.6354 10.125 12.5 10.125ZM12.5 13.5H2.5C2.36458 13.5 2.2474 13.5557 2.14844 13.667C2.04948 13.7783 2 13.9102 2 14.0625C2 14.2148 2.04948 14.3467 2.14844 14.458C2.2474 14.5693 2.36458 14.625 2.5 14.625H12.5C12.6354 14.625 12.7526 14.5693 12.8516 14.458C12.9505 14.3467 13 14.2148 13 14.0625C13 13.9102 12.9505 13.7783 12.8516 13.667C12.7526 13.5557 12.6354 13.5 12.5 13.5ZM11.5 3.375C11.3646 3.375 11.2474 3.31934 11.1484 3.20801C11.0495 3.09668 11 2.96484 11 2.8125V0.5625C11 0.410156 11.0495 0.27832 11.1484 0.166992C11.2474 0.0556641 11.3646 0 11.5 0C11.6354 0 11.7526 0.0556641 11.8516 0.166992C11.9505 0.27832 12 0.410156 12 0.5625V2.8125C12 2.96484 11.9505 3.09668 11.8516 3.20801C11.7526 3.31934 11.6354 3.375 11.5 3.375ZM3.5 3.375C3.36458 3.375 3.2474 3.31934 3.14844 3.20801C3.04948 3.09668 3 2.96484 3 2.8125V0.5625C3 0.410156 3.04948 0.27832 3.14844 0.166992C3.2474 0.0556641 3.36458 0 3.5 0C3.63542 0 3.7526 0.0556641 3.85156 0.166992C3.95052 0.27832 4 0.410156 4 0.5625V2.8125C4 2.96484 3.95052 3.09668 3.85156 3.20801C3.7526 3.31934 3.63542 3.375 3.5 3.375Z" fill="white"/>
</svg>
