<svg width="20" height="20" viewBox="0 0 20 20" fill="none" xmlns="http://www.w3.org/2000/svg">
<path fill-rule="evenodd" clip-rule="evenodd" d="M13.3332 7.49999C13.3332 8.38404 12.982 9.23189 12.3569 9.85701C11.7317 10.4821 10.8839 10.8333 9.99984 10.8333C9.11578 10.8333 8.26794 10.4821 7.64281 9.85701C7.01769 9.23189 6.6665 8.38404 6.6665 7.49999C6.6665 6.61593 7.01769 5.76809 7.64281 5.14297C8.26794 4.51785 9.11578 4.16666 9.99984 4.16666C10.8839 4.16666 11.7317 4.51785 12.3569 5.14297C12.982 5.76809 13.3332 6.61593 13.3332 7.49999ZM11.6665 7.49999C11.6665 7.94202 11.4909 8.36594 11.1783 8.6785C10.8658 8.99106 10.4419 9.16666 9.99984 9.16666C9.55781 9.16666 9.13389 8.99106 8.82133 8.6785C8.50877 8.36594 8.33317 7.94202 8.33317 7.49999C8.33317 7.05796 8.50877 6.63404 8.82133 6.32148C9.13389 6.00892 9.55781 5.83332 9.99984 5.83332C10.4419 5.83332 10.8658 6.00892 11.1783 6.32148C11.4909 6.63404 11.6665 7.05796 11.6665 7.49999Z" fill="white"/>
<path fill-rule="evenodd" clip-rule="evenodd" d="M9.99992 0.833328C4.93742 0.833328 0.833252 4.93749 0.833252 9.99999C0.833252 15.0625 4.93742 19.1667 9.99992 19.1667C15.0624 19.1667 19.1666 15.0625 19.1666 9.99999C19.1666 4.93749 15.0624 0.833328 9.99992 0.833328ZM2.49992 9.99999C2.49992 11.7417 3.09408 13.345 4.08992 14.6183C4.78928 13.6999 5.6915 12.9556 6.72611 12.4436C7.76072 11.9316 8.8997 11.6657 10.0541 11.6667C11.1935 11.6656 12.3182 11.9246 13.3424 12.424C14.3665 12.9234 15.2632 13.6499 15.9641 14.5483C16.6861 13.6013 17.1723 12.496 17.3823 11.3238C17.5924 10.1516 17.5203 8.94627 17.172 7.80748C16.8237 6.66869 16.2093 5.6292 15.3795 4.77503C14.5497 3.92085 13.5285 3.27654 12.4002 2.89542C11.272 2.51429 10.0692 2.4073 8.89147 2.58331C7.71369 2.75931 6.59474 3.21324 5.62723 3.90754C4.65971 4.60184 3.87143 5.51655 3.32761 6.57599C2.78379 7.63543 2.50007 8.80913 2.49992 9.99999ZM9.99992 17.5C8.27821 17.5026 6.60847 16.9103 5.27325 15.8233C5.81069 15.0539 6.52603 14.4258 7.35841 13.9922C8.19079 13.5587 9.11557 13.3327 10.0541 13.3333C10.9809 13.3326 11.8945 13.553 12.719 13.9762C13.5436 14.3994 14.2552 15.0132 14.7949 15.7667C13.4493 16.8889 11.7521 17.5025 9.99992 17.5Z" fill="white"/>
</svg>
